<svg xmlns="http://www.w3.org/2000/svg" width="128" height="32" viewBox="0 0 1024 256"><defs><style>.cls-1{fill-rule:evenodd}</style></defs><path id="RavelloH" fill="#c6c9ce" d="M76.173,124.5V89.33h58.169V124.5H76.173Zm81.336,58.168V159.332l-11.5-11.5,11.5-11.667V77.83L146.009,66H52.839v116.67H76.173V147.832h34.835l11.667,11.5,11.667,11.834v11.5h23.167Zm38.33-58.168V112.831l23.168-23.5h35V124.5H195.839Zm0,58.168V147.832h58.169v34.834h23.167V66H207.34l-34.835,35.168v81.5h23.334Zm154.5-23.334H338.671L315.5,136.165V66H292.17v81.836L327,182.666h35l34.835-34.834V66H373.672v70.169Zm160.5,23.334V159.332H435.169V136.165h69.836V112.831H435.169V89.33h75.669V66h-99v116.67h99Zm15-116.67v116.67h99V159.332H549.168V66H525.834ZM636.5,66v116.67h99V159.332H659.832V66H636.5Zm134,93.336v-70h58.169v70H770.5Zm69.836,23.334,11.5-11.5V77.83L840.332,66H758.663l-11.5,11.834v93.336l11.5,11.5h81.669Zm51.5,0v-46.5H950v46.5h23.167V66H950v46.835H891.829V66H868.5v116.67h23.334Z" class="cls-1" transform="translate(-1 3.672)"/></svg>